<?xml version="1.0" encoding="utf-8"?>
<svg xmlns="http://www.w3.org/2000/svg" viewBox="0 0 500 500">
  <g transform="matrix(0.1, 0, 0, -0.1, -9.964385, 470.98587)" fill="#000000" stroke="none">
    <path d="M3025 3957 c-61 -61 -53 -154 17 -197 87 -53 191 7 190 111 0 21 -6 47 -12 59 -18 33 -70 60 -118 60 -36 0 -50 -6 -77 -33z" style="fill: rgb(66, 86, 241);"/>
    <path d="M1721 3946 c-49 -17 -109 -72 -127 -114 -18 -44 -20 -118 -4 -166 22 -68 121 -136 200 -136 114 0 210 98 210 215 0 147 -143 250 -279 201z" style="fill: rgb(66, 86, 241);"/>
    <path d="M935 3570 c-385 -87 -662 -356 -767 -743 -32 -117 -32 -354 -1 -477 92 -361 346 -626 708 -736 83 -26 104 -28 265 -28 162 -1 183 1 284 28 148 39 242 35 351 -18 94 -44 156 -106 220 -218 155 -269 378 -440 665 -510 115 -28 311 -30 430 -5 357 77 639 328 754 671 14 43 26 84 26 91 0 7 18 49 40 93 30 60 57 96 107 142 77 73 130 99 268 135 246 64 417 198 520 410 59 121 78 204 78 340 -2 396 -286 710 -683 755 -186 21 -359 -25 -530 -140 -70 -47 -109 -60 -180 -60 -80 0 -125 19 -231 95 -206 148 -398 204 -658 192 -158 -7 -265 -36 -414 -112 -59 -31 -133 -62 -165 -70 -120 -32 -237 -13 -389 63 -187 94 -304 122 -491 121 -84 0 -154 -7 -207 -19z m1773 -242 c24 -11 56 -38 72 -59 52 -72 48 -146 -12 -222 -17 -21 -28 -39 -27 -41 130 -81 168 -128 177 -217 6 -64 -31 -143 -84 -179 -34 -23 -46 -24 -193 -27 -154 -3 -211 5 -211 31 0 6 -9 -3 -19 -20 -21 -34 -46 -45 -149 -66 -83 -16 -110 -3 -135 67 -14 42 -16 71 -11 181 5 102 2 149 -11 214 -21 102 -15 127 32 146 33 14 38 14 62 -4 16 -12 35 -45 52 -93 14 -41 54 -123 88 -184 33 -60 61 -113 61 -117 0 -5 4 -8 8 -8 4 0 18 47 29 104 21 97 21 110 8 202 -24 174 -23 266 3 292 28 28 202 28 260 0z m736 -979 c14 -11 26 -27 26 -34 0 -22 -36 -51 -80 -64 -69 -20 -59 -33 19 -25 61 6 74 4 91 -11 40 -37 20 -79 -52 -109 -48 -20 -53 -31 -33 -63 18 -26 34 -27 140 -8 86 16 166 -125 121 -213 -21 -41 -56 -68 -114 -91 -61 -24 -109 -27 -155 -7 -105 44 -227 285 -227 448 0 93 39 154 116 182 58 22 117 20 148 -5z m-375 -104 c44 -22 73 -97 86 -225 7 -69 25 -112 80 -199 44 -69 53 -113 32 -157 -42 -86 -209 -99 -243 -18 -18 43 -18 161 1 289 17 117 18 145 6 145 -5 0 -16 -39 -24 -86 -18 -95 -37 -134 -68 -134 -37 0 -57 19 -106 100 -26 44 -51 80 -55 80 -20 0 -2 -37 68 -140 41 -61 84 -130 95 -153 21 -47 25 -117 8 -149 -17 -31 -86 -58 -152 -58 -48 0 -62 4 -82 25 -27 27 -28 34 -25 196 1 69 -4 136 -15 190 -10 48 -15 109 -13 147 4 55 8 68 32 88 31 27 72 31 102 9 12 -8 39 -41 60 -75 22 -33 42 -60 46 -60 4 0 10 21 13 48 17 122 79 177 154 137z m-611 -41 c29 -20 48 -67 77 -189 13 -55 42 -152 65 -214 43 -122 52 -189 29 -237 -13 -27 -18 -29 -85 -32 -95 -4 -120 7 -134 57 -9 33 -2 152 13 246 1 5 -16 10 -38 10 -30 0 -39 -4 -36 -15 2 -8 6 -63 8 -122 7 -139 -2 -158 -80 -157 -84 1 -149 15 -164 35 -21 28 -9 85 43 194 25 52 63 140 83 195 71 186 111 245 170 245 15 0 37 -7 49 -16z" style="fill: rgb(66, 86, 241);"/>
    <path d="M4290 1698 c-153 -43 -193 -248 -70 -351 137 -116 360 19 321 193 -17 78 -49 117 -121 149 -49 22 -77 24 -130 9z" style="fill: rgb(66, 86, 241);"/>
  </g>
</svg>