<?xml version="1.0" standalone="no"?>
<!DOCTYPE svg PUBLIC "-//W3C//DTD SVG 20010904//EN"
 "http://www.w3.org/TR/2001/REC-SVG-20010904/DTD/svg10.dtd">
<svg version="1.0" xmlns="http://www.w3.org/2000/svg"
 width="300.000000pt" height="300.000000pt" viewBox="0 0 300.000000 300.000000"
 preserveAspectRatio="xMidYMid meet">
<metadata>
Created by potrace 1.10, written by Peter Selinger 2001-2011
</metadata>
<g transform="translate(0.000000,300.000000) scale(0.100000,-0.100000)"
fill="#000000" stroke="none">
<path d="M1830 2387 c-49 -25 -52 -102 -5 -133 46 -30 115 9 115 65 0 56 -60
93 -110 68z m72 -52 c10 -21 8 -28 -8 -40 -26 -19 -38 -19 -58 4 -15 16 -15
22 -4 40 18 29 56 27 70 -4z"/>
<path d="M1021 2362 c-51 -25 -74 -63 -74 -116 2 -75 54 -126 131 -126 34 0
49 6 78 33 68 62 54 166 -28 208 -46 23 -64 24 -107 1z m118 -48 c37 -43 38
-85 4 -124 -24 -27 -37 -33 -67 -32 -20 1 -50 11 -67 22 -40 29 -41 89 -2 131
38 40 99 41 132 3z"/>
<path d="M620 2153 c-259 -33 -472 -231 -524 -485 -20 -97 -20 -139 0 -235 46
-224 214 -404 437 -467 96 -28 229 -25 338 7 124 36 250 -16 316 -131 110
-191 258 -297 459 -329 87 -14 105 -14 182 1 133 24 238 79 332 174 82 83 113
134 153 254 14 42 32 89 41 105 31 59 132 134 197 147 97 18 166 52 235 118
226 214 180 582 -91 733 -149 84 -330 75 -482 -22 -96 -61 -172 -57 -257 14
-86 72 -225 116 -366 116 -108 0 -179 -17 -281 -68 -134 -68 -204 -68 -340 0
-110 56 -244 82 -349 68z m188 -38 c34 -8 95 -30 135 -48 123 -58 132 -60 217
-55 43 3 85 1 92 -4 10 -6 10 -8 -1 -8 -31 0 -55 -72 -32 -95 6 -6 11 -38 12
-73 1 -35 6 -65 10 -68 4 -2 7 -53 6 -113 -2 -103 -1 -111 22 -135 29 -31 87
-35 147 -10 43 18 179 26 206 12 10 -5 19 -4 23 2 3 5 18 10 32 10 35 0 90 57
99 104 9 51 -9 108 -47 146 -28 28 -30 34 -23 73 15 82 -6 135 -65 163 -69 33
-180 23 -202 -18 -8 -15 -10 -58 -5 -141 6 -111 6 -119 -10 -106 -25 20 -84
151 -84 185 0 36 -17 61 -45 66 -33 5 -23 32 20 54 88 44 187 69 275 69 97 0
204 -21 194 -37 -4 -7 -2 -8 4 -4 13 8 97 -33 152 -74 51 -38 94 -53 153 -52
74 2 89 6 147 46 29 20 60 36 69 36 9 0 21 4 27 9 5 4 37 14 71 21 50 10 75
10 128 0 63 -12 149 -46 182 -73 77 -62 163 -179 163 -224 0 -12 4 -24 9 -27
4 -3 9 -43 10 -88 2 -84 -15 -154 -53 -224 -37 -69 -168 -179 -228 -191 -16
-3 -31 -10 -34 -14 -3 -5 -18 -9 -35 -9 -16 0 -37 -4 -47 -9 -9 -5 -30 -15
-46 -22 -41 -20 -110 -89 -129 -129 -16 -35 -53 -137 -64 -175 -4 -11 -9 -22
-12 -25 -3 -3 -15 -22 -26 -44 -10 -21 -52 -70 -92 -110 -118 -117 -276 -182
-418 -173 -39 2 -80 7 -92 10 -13 4 -33 9 -45 12 -25 5 -45 14 -123 53 -59 30
-183 150 -217 210 -95 171 -212 220 -411 173 -153 -36 -245 -25 -399 49 -27
13 -48 27 -48 32 0 4 -6 8 -14 8 -18 0 -129 114 -168 172 -16 24 -32 55 -35
71 -3 15 -9 27 -14 27 -5 0 -9 9 -9 21 0 11 -4 29 -10 39 -12 22 -16 235 -6
270 22 68 72 175 98 207 67 82 138 140 220 181 48 23 97 42 110 43 13 0 32 4
43 9 32 14 144 11 213 -5z m827 -125 c58 -36 70 -95 30 -154 l-25 -37 23 -8
c13 -5 38 -25 55 -45 26 -30 32 -45 32 -82 0 -39 -5 -51 -34 -80 l-34 -34
-105 0 c-65 0 -108 4 -112 11 -5 6 -12 3 -21 -10 -15 -21 -109 -46 -136 -36
-28 11 -39 57 -39 160 1 55 -4 116 -9 135 -13 45 -5 68 26 76 32 8 48 -7 63
-58 7 -24 22 -59 34 -78 11 -19 31 -55 43 -79 l22 -44 11 54 c8 35 9 96 5 176
-5 87 -4 127 5 136 18 23 129 20 166 -3z m-318 -26 c10 -27 -11 -49 -48 -49
-37 0 -51 24 -29 50 17 20 69 19 77 -1z"/>
<path d="M1970 1438 c0 -4 -6 -8 -13 -8 -8 0 -28 -16 -46 -35 -33 -36 -45 -42
-56 -25 -3 6 -21 10 -40 10 -25 0 -42 -8 -63 -31 -29 -31 -31 -31 -53 -15 -13
9 -36 16 -52 16 -35 0 -77 -40 -77 -73 0 -14 -7 -28 -16 -31 -8 -3 -12 -2 -9
4 3 6 1 10 -6 10 -7 0 -10 3 -6 6 8 8 -17 56 -38 74 -21 17 -71 15 -101 -5
-25 -16 -52 -67 -80 -150 -9 -27 -19 -52 -23 -55 -13 -10 -51 -122 -51 -151 0
-16 8 -37 19 -48 24 -24 104 -36 141 -21 24 10 33 9 52 -4 28 -20 106 -21 131
-2 15 12 24 12 56 -1 44 -17 107 -6 134 25 12 13 26 17 47 14 16 -2 30 -8 30
-12 0 -4 23 -2 51 4 51 12 89 43 89 73 0 8 5 11 11 8 27 -17 113 -16 153 2 62
27 85 59 86 115 0 39 -5 52 -34 82 -21 23 -43 36 -58 36 -24 0 -25 2 -21 44 3
26 1 46 -6 50 -6 4 -11 18 -11 32 0 14 -12 36 -27 50 -21 19 -36 24 -70 22
-24 -1 -43 -5 -43 -10z m104 -37 c19 -21 9 -35 -37 -46 -48 -12 -40 -25 15
-22 50 2 53 1 56 -23 2 -21 -4 -29 -33 -43 -38 -18 -41 -33 -12 -51 12 -8 26
-7 49 2 41 15 73 -4 95 -55 22 -53 4 -88 -63 -121 -49 -24 -54 -25 -91 -11
-96 37 -183 275 -125 345 39 47 114 60 146 25z m-239 -47 c24 -10 43 -53 55
-130 7 -39 22 -85 36 -107 39 -60 47 -87 33 -119 -12 -29 -39 -41 -93 -41 -49
0 -59 24 -52 138 3 55 9 112 12 128 3 15 2 27 -3 27 -5 0 -14 -27 -21 -59 -7
-32 -18 -64 -25 -70 -19 -15 -49 9 -83 66 -15 26 -29 42 -32 35 -2 -6 22 -50
53 -96 88 -133 83 -186 -21 -202 -70 -10 -84 11 -84 128 0 50 -5 119 -12 155
-11 59 -10 66 9 91 36 49 64 41 111 -33 l26 -40 8 50 c5 31 17 57 29 68 23 19
29 20 54 11z m-352 -39 c8 -8 23 -47 32 -87 10 -40 28 -101 41 -136 27 -73 35
-130 22 -154 -7 -14 -21 -18 -64 -18 -49 0 -55 3 -64 24 -5 14 -7 41 -4 60 14
116 16 106 -18 106 -25 0 -29 -3 -23 -17 14 -36 17 -120 6 -141 -10 -18 -21
-22 -66 -22 -56 0 -85 16 -85 48 0 9 13 44 28 77 16 33 43 98 62 145 18 47 42
95 53 108 23 25 59 29 80 7z"/>
<path d="M1433 1258 c-6 -7 -13 -29 -15 -48 -3 -30 0 -35 20 -38 19 -3 22 1
22 35 0 48 -12 70 -27 51z"/>
<path d="M1550 1921 c0 -16 7 -37 16 -45 20 -20 21 -20 34 5 9 16 8 26 -5 45
-22 34 -45 31 -45 -5z"/>
<path d="M1564 1744 c-8 -30 11 -77 29 -72 16 6 21 52 7 78 -15 27 -28 25 -36
-6z"/>
<path d="M2576 1020 c-40 -13 -74 -47 -86 -89 -21 -78 57 -161 137 -146 116
21 135 173 29 225 -23 11 -44 20 -47 19 -2 0 -17 -5 -33 -9z m96 -59 c35 -34
30 -87 -12 -122 -42 -35 -81 -33 -115 7 -36 42 -33 85 7 119 37 32 83 30 120
-4z"/>
</g>
</svg>
